<svg xmlns="http://www.w3.org/2000/svg" width="187.76" height="200.305" viewBox="0 0 187.76 200.305"><g transform="translate(-16.032 0)"><g transform="translate(16.032 -0.001)"><path d="M202.134,44.2,111.188.291a2.935,2.935,0,0,0-2.551,0L17.69,44.2a2.934,2.934,0,0,0-1.658,2.642V153.465a2.934,2.934,0,0,0,1.658,2.642l90.946,43.905a2.934,2.934,0,0,0,2.552,0l90.946-43.905a2.934,2.934,0,0,0,1.658-2.642V46.839A2.935,2.935,0,0,0,202.134,44.2Zm-92.222-38,84.2,40.647L169.7,58.621a2.909,2.909,0,0,0-.5-.313L85.58,17.938ZM78.954,21.256l84.075,40.587-17.22,8.313L61.769,29.585ZM165,67.41V98.138L148.911,105.9V75.175Zm32.929,84.214-85.078,41.071V92.585l20.294-9.8a2.934,2.934,0,1,0-2.552-5.285l-20.676,9.982-8.136-3.928a2.934,2.934,0,0,0-2.552,5.285l7.753,3.743v100.11L21.9,151.623V51.513L86.686,82.789A2.934,2.934,0,0,0,89.237,77.5L25.715,46.838,54.863,32.767,143,75.317c.013.018.027.034.041.052v35.209a2.934,2.934,0,0,0,4.21,2.642l21.953-10.6a2.934,2.934,0,0,0,1.658-2.642v-35.4l27.06-13.064v100.11Z" transform="translate(-16.032 0.001)"/></g><g transform="translate(28.557 133.508)"><g transform="translate(0)"><path d="M65.605,348l-13.346-6.443a2.934,2.934,0,0,0-2.552,5.285l13.346,6.443A2.934,2.934,0,0,0,65.605,348Z" transform="translate(-48.048 -341.261)"/></g></g><g transform="translate(28.576 119.592)"><path d="M77.917,318.347,52.306,305.983a2.934,2.934,0,1,0-2.551,5.285l25.611,12.364a2.934,2.934,0,0,0,2.551-5.285Z" transform="translate(-48.096 -305.69)"/></g></g></svg>