<svg xmlns="http://www.w3.org/2000/svg" xmlns:xlink="http://www.w3.org/1999/xlink" width="73.479" height="44.285" viewBox="0 0 73.479 44.285"><defs><style>.a{fill:url(#a);}</style><linearGradient id="a" x1="0.448" x2="0.264" y2="1" gradientUnits="objectBoundingBox"><stop offset="0" stop-color="#4088ad"/><stop offset="1" stop-color="#2fe0c4"/></linearGradient></defs><g transform="translate(0 -74)"><g transform="translate(0 74)"><path class="a" d="M73.389,97.625,67.218,83.552a1.446,1.446,0,0,0-1.345-.793H49.512V75.217A1.34,1.34,0,0,0,48.077,74H18.657a1.233,1.233,0,1,0,0,2.433H46.642v33.579H19.573a6.858,6.858,0,0,0-5.8-2.92,6.858,6.858,0,0,0-5.8,2.92H2.87v-5.353H36.6a1.233,1.233,0,1,0,0-2.433H2.87V76.433H7.176a1.233,1.233,0,1,0,0-2.433H1.435A1.34,1.34,0,0,0,0,75.217v36.012a1.34,1.34,0,0,0,1.435,1.217H7.183c0,.081-.007.162-.007.243,0,3.086,2.962,5.6,6.6,5.6s6.6-2.511,6.6-5.6c0-.082,0-.163-.007-.243H54.543c0,.081-.007.162-.007.243,0,3.086,2.962,5.6,6.6,5.6s6.6-2.511,6.6-5.6c0-.082,0-.163-.007-.243h4.313a1.34,1.34,0,0,0,1.435-1.217V98.049A1.052,1.052,0,0,0,73.389,97.625ZM13.777,115.852a3.487,3.487,0,0,1-3.731-3.163,2.707,2.707,0,0,1,.114-.776,1.1,1.1,0,0,0,.242-.571,3.83,3.83,0,0,1,3.375-1.817,3.206,3.206,0,1,1,0,6.326Zm56.2-19.02H55.516a.246.246,0,0,1-.263-.223V90.282a.246.246,0,0,1,.263-.223H67.01Zm-8.842,19.02a3.206,3.206,0,1,1,3.731-3.163A3.487,3.487,0,0,1,61.137,115.852Zm5.8-5.84a7.213,7.213,0,0,0-11.592,0H49.512V85.193H64.875l1.067,2.433H55.516a2.928,2.928,0,0,0-3.133,2.656v6.326a2.928,2.928,0,0,0,3.133,2.656H70.609v1.825H69.03a1.233,1.233,0,1,0,0,2.433h1.579v6.489Z" transform="translate(0 -74)"/><path class="a" d="M81.088,76.175a1.088,1.088,0,1,0-.769-.319A1.1,1.1,0,0,0,81.088,76.175Z" transform="translate(-71.3 -74)"/><path class="a" d="M286.856,307.856a1.087,1.087,0,1,0-.769.319A1.1,1.1,0,0,0,286.856,307.856Z" transform="translate(-243.696 -277.6)"/><path class="a" d="M366.088,296.667A1.088,1.088,0,0,0,365,297.755v.471a1.087,1.087,0,1,0,2.175,0v-.471A1.088,1.088,0,0,0,366.088,296.667Z" transform="translate(-312.102 -269.371)"/></g></g></svg>