<svg xmlns="http://www.w3.org/2000/svg" width="276" height="169.198" viewBox="0 0 276 169.198"><path d="M420.905,300a8.905,8.905,0,1,0,8.905,8.905A8.9,8.9,0,0,0,420.905,300Zm0,0" transform="translate(-180.526 -166.423)"/><path d="M416.453,220a4.453,4.453,0,1,0,4.453,4.453A4.454,4.454,0,0,0,416.453,220Zm0,0" transform="translate(-180.526 -122.043)"/><path d="M114.905,300a8.905,8.905,0,1,0,8.905,8.905A8.9,8.9,0,0,0,114.905,300Zm0,0" transform="translate(-48.017 -166.423)"/><path d="M253.343,80.432l-9.295-30.709a12.267,12.267,0,0,0,5-9.65c0-7.366-7.254-13.358-16.172-13.358H189.75V13.358C189.75,5.992,182.5,0,173.578,0H16.172C7.254,0,0,5.992,0,13.358V129.125c0,7.366,7.254,13.358,16.172,13.358H35.578c0,14.732,14.508,26.715,32.344,26.715s32.344-11.984,32.344-26.715H200.531c0,14.732,14.508,26.715,32.344,26.715s32.344-11.984,32.344-26.715c0-.254-.015-.506-.023-.76,6.286-1.831,10.8-6.787,10.8-12.6V102.409C276,91.34,266.171,82.136,253.343,80.432Zm-19.286-27,8.086,26.715h-44.77l12.361-10.21a3.927,3.927,0,0,0,0-6.3,6.22,6.22,0,0,0-7.623,0L189.75,73.848V53.431Zm4.209-13.358c0,2.458-2.415,4.453-5.391,4.453H189.75V35.621h43.125C235.848,35.621,238.266,37.617,238.266,40.073ZM67.922,160.293c-11.889,0-21.562-7.99-21.562-17.81,0-9.954,9.848-17.81,21.563-17.81,11.741,0,21.563,7.877,21.563,17.81C89.484,152.3,79.811,160.293,67.922,160.293Zm30.493-26.715c-4.5-10.507-16.688-17.81-30.493-17.81s-26,7.308-30.495,17.81H16.172c-2.973,0-5.391-2-5.391-4.453V13.358c0-2.456,2.417-4.453,5.391-4.453H173.578c2.973,0,5.391,2,5.391,4.453v120.22Zm134.46,26.715c-11.889,0-21.563-7.99-21.563-17.81,0-9.954,9.848-17.81,21.563-17.81,11.741,0,21.562,7.877,21.562,17.81C254.438,152.3,244.764,160.293,232.875,160.293Zm30.11-27.566c-4.782-10.05-16.679-16.96-30.11-16.96-13.811,0-26,7.308-30.495,17.81H189.75V89.052h59.3c7.027,0,13.02,3.722,15.245,8.905H249.047c-2.977,0-5.391,1.993-5.391,4.453s2.413,4.453,5.391,4.453h16.172v22.263A4.272,4.272,0,0,1,262.985,132.727Zm0,0"/><path d="M126.073,60a40.073,40.073,0,1,0,40.073,40.073A40.119,40.119,0,0,0,126.073,60Zm0,71.241a31.168,31.168,0,1,1,31.168-31.168A31.2,31.2,0,0,1,126.073,131.241Zm0,0" transform="translate(-35.267 -33.285)"/><path d="M188.263,117.81H174.905V104.453a4.453,4.453,0,1,0-8.905,0v17.81a4.452,4.452,0,0,0,4.453,4.453h17.81a4.453,4.453,0,0,0,0-8.905Zm0,0" transform="translate(-74.449 -55.474)"/></svg>