<svg xmlns="http://www.w3.org/2000/svg" width="25.438" height="25.655" viewBox="0 0 25.438 25.655"><path d="M12.647,38.075a6.578,6.578,0,1,0,6.521,6.578A6.539,6.539,0,0,0,12.647,38.075Zm0,10.854a4.276,4.276,0,1,1,4.239-4.276,4.266,4.266,0,0,1-4.239,4.276Zm8.308-11.123a1.521,1.521,0,1,1-1.521-1.534A1.524,1.524,0,0,1,20.955,37.806Zm4.319,1.557a7.629,7.629,0,0,0-2.054-5.375,7.54,7.54,0,0,0-5.329-2.072c-2.1-.12-8.393-.12-10.493,0a7.529,7.529,0,0,0-5.329,2.067A7.654,7.654,0,0,0,.014,39.357C-.1,41.475-.1,47.824.014,49.942a7.629,7.629,0,0,0,2.054,5.375A7.549,7.549,0,0,0,7.4,57.39c2.1.12,8.393.12,10.493,0a7.49,7.49,0,0,0,5.329-2.072,7.68,7.68,0,0,0,2.054-5.375C25.393,47.824,25.393,41.481,25.274,39.363ZM22.561,52.215a4.311,4.311,0,0,1-2.418,2.439c-1.674.67-5.647.515-7.5.515s-5.828.149-7.5-.515a4.311,4.311,0,0,1-2.418-2.439c-.664-1.689-.511-5.7-.511-7.562s-.148-5.879.511-7.562A4.311,4.311,0,0,1,5.15,34.652c1.674-.67,5.647-.515,7.5-.515s5.828-.149,7.5.515a4.311,4.311,0,0,1,2.418,2.439c.664,1.689.511,5.7.511,7.562S23.225,50.532,22.561,52.215Z" transform="translate(0.075 -31.825)"/></svg>