<svg xmlns="http://www.w3.org/2000/svg" width="32.486" height="19.725" viewBox="0 0 32.486 19.725"><path d="M1.16,63.623H31.326c.641,0,1.16-.36,1.16-.805V60.805c0-.445-.519-.805-1.16-.805H1.16C.519,60,0,60.36,0,60.805v2.013C0,63.263.519,63.623,1.16,63.623Zm0,8.051H31.326c.641,0,1.16-.36,1.16-.805V68.856c0-.445-.519-.805-1.16-.805H1.16c-.641,0-1.16.36-1.16.805v2.013C0,71.314.519,71.674,1.16,71.674Zm0,8.051H31.326c.641,0,1.16-.36,1.16-.805V76.907c0-.445-.519-.805-1.16-.805H1.16c-.641,0-1.16.36-1.16.805V78.92C0,79.365.519,79.725,1.16,79.725Z" transform="translate(0 -60)"/></svg>