<svg xmlns="http://www.w3.org/2000/svg" xmlns:xlink="http://www.w3.org/1999/xlink" width="69.563" height="48.01" viewBox="0 0 69.563 48.01"><defs><linearGradient id="a" x1="-4.948" x2="-3.071" y2="-4.381" gradientUnits="objectBoundingBox"><stop offset="0" stop-color="#4088ad"/><stop offset="1" stop-color="#2fe0c4"/></linearGradient></defs><path d="M414.717,300a2.777,2.777,0,1,0,2.717,2.776A2.746,2.746,0,0,0,414.717,300Zm0,0" transform="translate(-356.024 -263.095)" fill="url(#a)"/><path d="M413.359,220a1.388,1.388,0,1,0,1.359,1.388A1.374,1.374,0,0,0,413.359,220Zm0,0" transform="translate(-356.024 -192.357)" fill="url(#a)"/><path d="M108.717,300a2.777,2.777,0,1,0,2.717,2.776A2.746,2.746,0,0,0,108.717,300Zm0,0" transform="translate(-91.598 -263.095)" fill="url(#a)"/><path d="M63.852,22.822l-2.343-8.714a3.638,3.638,0,0,0,1.26-2.738,3.945,3.945,0,0,0-4.076-3.79H47.824V3.79A3.945,3.945,0,0,0,43.748,0H4.076A3.945,3.945,0,0,0,0,3.79V36.639a3.945,3.945,0,0,0,4.076,3.79H8.967c0,4.18,3.657,7.58,8.152,7.58s8.152-3.4,8.152-7.58H50.542c0,4.18,3.657,7.58,8.152,7.58s8.152-3.4,8.152-7.58c0-.072,0-.144-.006-.216a3.826,3.826,0,0,0,2.723-3.575v-7.58A6.485,6.485,0,0,0,63.852,22.822Zm-4.861-7.661,2.038,7.58H49.745l3.115-2.9a1.2,1.2,0,0,0,0-1.787,1.432,1.432,0,0,0-1.921,0l-3.115,2.9V15.161Zm1.061-3.79a1.314,1.314,0,0,1-1.359,1.263H47.824V10.107H58.693A1.315,1.315,0,0,1,60.052,11.371ZM17.119,45.483a5.261,5.261,0,0,1-5.435-5.054,5.264,5.264,0,0,1,5.435-5.054,5.263,5.263,0,0,1,5.435,5.054A5.261,5.261,0,0,1,17.119,45.483ZM24.8,37.9a8.166,8.166,0,0,0-7.685-5.054A8.166,8.166,0,0,0,9.433,37.9H4.076a1.315,1.315,0,0,1-1.359-1.263V3.79A1.315,1.315,0,0,1,4.076,2.527H43.748A1.315,1.315,0,0,1,45.107,3.79V37.9Zm33.889,7.58a5.261,5.261,0,0,1-5.435-5.054,5.449,5.449,0,0,1,10.869,0A5.261,5.261,0,0,1,58.693,45.483Zm7.589-7.822a8.38,8.38,0,0,0-15.275.241H47.824V25.268H62.769A4.074,4.074,0,0,1,66.612,27.8H62.769a1.267,1.267,0,1,0,0,2.527h4.076v6.317A1.238,1.238,0,0,1,66.282,37.661Zm0,0" transform="translate(0 0)" fill="url(#a)"/><path d="M98.228,60a12.5,12.5,0,1,0,12.228,12.493A12.377,12.377,0,0,0,98.228,60Zm0,22.21a9.719,9.719,0,1,1,9.511-9.717A9.626,9.626,0,0,1,98.228,82.21Zm0,0" transform="translate(-74.316 -53.093)" fill="url(#a)"/><path d="M172.793,105.552h-4.076v-4.164a1.359,1.359,0,1,0-2.717,0v5.552a1.373,1.373,0,0,0,1.359,1.388h5.435a1.388,1.388,0,0,0,0-2.776Zm0,0" transform="translate(-143.447 -87.6)" fill="url(#a)"/></svg>