<svg xmlns="http://www.w3.org/2000/svg" width="276" height="160.979" viewBox="0 0 276 160.979"><g transform="translate(0 -74)"><g transform="translate(0 74)"><path d="M275.662,159.877l-23.18-51.154a5.459,5.459,0,0,0-5.053-2.882H185.977V78.422c0-2.442-2.413-4.422-5.391-4.422H70.078c-2.977,0-5.391,1.98-5.391,4.422s2.413,4.422,5.391,4.422H175.2V204.906H73.521c-4.212-6.318-12.391-10.614-21.771-10.614s-17.559,4.3-21.771,10.614h-19.2V185.447h126.68c2.977,0,5.391-1.98,5.391-4.422s-2.413-4.422-5.391-4.422H10.781V82.845H26.953c2.977,0,5.391-1.98,5.391-4.422S29.93,74,26.953,74H5.391C2.413,74,0,75.98,0,78.422V209.328c0,2.442,2.413,4.422,5.391,4.422h21.59c-.016.294-.027.588-.027.885,0,11.217,11.124,20.343,24.8,20.343s24.8-9.126,24.8-20.343c0-.3-.012-.591-.027-.885H204.871c-.016.294-.027.588-.027.885,0,11.217,11.124,20.343,24.8,20.343s24.8-9.126,24.8-20.343c0-.3-.012-.591-.027-.885h16.2c2.977,0,5.391-1.98,5.391-4.422v-47.91A3.72,3.72,0,0,0,275.662,159.877ZM51.75,226.134c-7.728,0-14.016-5.158-14.016-11.5a9.547,9.547,0,0,1,.427-2.819,3.932,3.932,0,0,0,.909-2.075c2.245-3.9,7.083-6.6,12.679-6.6,7.728,0,14.016,5.158,14.016,11.5S59.478,226.134,51.75,226.134ZM262.854,157H208.528a.914.914,0,0,1-.988-.811v-23a.914.914,0,0,1,.988-.811H251.7Zm-33.214,69.138c-7.728,0-14.016-5.158-14.016-11.5s6.288-11.5,14.016-11.5,14.016,5.158,14.016,11.5S237.369,226.134,229.641,226.134Zm21.771-21.228c-4.212-6.318-12.391-10.614-21.771-10.614s-17.559,4.3-21.771,10.614H185.977V114.687h57.706l4.008,8.845H208.528c-6.49,0-11.77,4.331-11.77,9.656v23c0,5.324,5.28,9.656,11.769,9.656h56.692v6.634h-5.93c-2.977,0-5.391,1.98-5.391,4.422s2.413,4.423,5.391,4.423h5.93v23.586Z" transform="translate(0 -74)"/><path d="M84.422,82.845a4.425,4.425,0,1,0-3.127-1.3A4.455,4.455,0,0,0,84.422,82.845Z" transform="translate(-44.62 -74)"/><path d="M292.549,313.549a4.419,4.419,0,1,0-3.127,1.3A4.454,4.454,0,0,0,292.549,313.549Z" transform="translate(-130.246 -203.398)"/><path d="M369.422,296.667A4.423,4.423,0,0,0,365,301.089v1.916a4.422,4.422,0,0,0,8.845,0v-1.916A4.423,4.423,0,0,0,369.422,296.667Z" transform="translate(-166.806 -198.193)"/></g></g></svg>