<svg xmlns="http://www.w3.org/2000/svg" width="29.888" height="25.655" viewBox="0 0 29.888 25.655"><path d="M26.816,54.476c.019.281.019.561.019.842,0,8.558-6.163,18.419-17.428,18.419A16.64,16.64,0,0,1,0,70.831a12,12,0,0,0,1.479.08,11.855,11.855,0,0,0,7.6-2.766,6.189,6.189,0,0,1-5.727-4.49,7.319,7.319,0,0,0,1.157.1,6.15,6.15,0,0,0,1.612-.22,6.4,6.4,0,0,1-4.912-6.354V57.1a5.921,5.921,0,0,0,2.769.822,6.573,6.573,0,0,1-2.731-5.392,6.706,6.706,0,0,1,.834-3.267,17.121,17.121,0,0,0,12.63,6.775,7.708,7.708,0,0,1-.152-1.483,6.3,6.3,0,0,1,6.125-6.474,5.963,5.963,0,0,1,4.476,2.044,11.673,11.673,0,0,0,3.888-1.563,6.4,6.4,0,0,1-2.693,3.568,11.763,11.763,0,0,0,3.527-1A13.6,13.6,0,0,1,26.816,54.476Z" transform="translate(0 -48.082)"/></svg>